<?xml version="1.0" standalone="no"?>
<!DOCTYPE svg PUBLIC "-//W3C//DTD SVG 20010904//EN"
 "http://www.w3.org/TR/2001/REC-SVG-20010904/DTD/svg10.dtd">
<svg version="1.0" xmlns="http://www.w3.org/2000/svg"
 width="1280.000000pt" height="996.000000pt" viewBox="0 0 1280.000000 996.000000"
 preserveAspectRatio="xMidYMid meet">
<g transform="translate(0.000000,996.000000) scale(0.100000,-0.100000)"
fill="#000000" stroke="none">
<path d="M7270 9949 c-25 -4 -94 -15 -155 -25 -288 -44 -568 -162 -816 -345
-114 -84 -310 -283 -391 -399 -609 -862 -397 -2039 471 -2622 478 -320 1076
-400 1626 -217 885 294 1414 1215 1225 2132 -142 686 -665 1236 -1349 1418
-192 51 -494 80 -611 58z"/>
<path d="M2980 7619 c-342 -35 -729 -173 -1013 -363 -540 -361 -892 -922 -982
-1566 -20 -146 -23 -428 -6 -565 68 -528 298 -990 672 -1350 352 -339 783
-545 1273 -610 135 -17 400 -20 531 -4 771 89 1427 552 1766 1244 104 214 168
417 205 655 27 172 25 512 -4 680 -68 394 -220 740 -459 1044 -72 91 -268 287
-359 359 -307 242 -675 402 -1064 462 -128 19 -430 27 -560 14z"/>
<path d="M10010 5946 c-398 -58 -743 -235 -1022 -523 -300 -312 -466 -704
-485 -1143 -29 -691 357 -1337 982 -1641 554 -269 1219 -225 1730 115 271 181
462 398 606 691 114 233 166 443 176 710 18 507 -173 973 -545 1326 -131 125
-259 215 -417 293 -254 127 -450 175 -740 181 -129 3 -221 0 -285 -9z"/>
<path d="M6144 5837 c24 -96 38 -325 33 -537 -7 -301 -37 -495 -121 -787 -69
-239 -203 -534 -341 -752 -36 -57 -62 -108 -57 -113 4 -4 525 -7 1158 -6
l1149 3 -1 25 c0 14 -11 84 -24 155 -21 114 -24 161 -25 380 0 280 12 382 70
611 65 252 172 496 314 712 44 67 77 122 72 122 -5 0 -34 -11 -65 -25 -164
-72 -390 -134 -589 -160 -150 -19 -423 -19 -569 0 -324 43 -648 165 -920 347
-81 54 -93 58 -84 25z"/>
<path d="M981 3214 c-474 -140 -831 -528 -940 -1019 -39 -179 -41 -225 -41
-1225 l0 -970 3230 0 3231 0 -4 1048 c-3 1137 0 1063 -58 1267 -30 105 -140
319 -213 416 -164 216 -412 394 -661 472 -148 46 -132 50 -214 -47 -95 -111
-281 -290 -395 -378 -400 -311 -846 -499 -1356 -570 -144 -20 -536 -17 -680 5
-498 77 -911 254 -1300 556 -104 81 -339 308 -416 402 -38 47 -63 69 -78 68
-11 0 -59 -11 -105 -25z"/>
<path d="M8475 2499 c-226 -76 -408 -216 -543 -417 -100 -150 -153 -305 -172
-501 -11 -113 -14 -1538 -4 -1565 6 -15 237 -16 2525 -16 l2519 0 0 768 0 768
-24 124 c-47 242 -126 405 -274 561 -135 144 -328 259 -499 299 l-53 12 -27
-34 c-15 -18 -66 -73 -113 -122 -651 -678 -1644 -856 -2465 -442 -266 134
-474 297 -682 534 -36 40 -63 62 -77 62 -11 0 -61 -14 -111 -31z"/>
</g>
</svg>
